<!-- Source: https://kage-design.com/2015/01/01/cat1/ -->
<svg xmlns="http://www.w3.org/2000/svg" viewBox="0 0 676.892 800"><path d="M576.827 19.977s6.956-9.291-6.986-11.609c-13.914-2.326-54.559 23.217-63.848 44.116 0 0-54.572 29.028-78.943 53.42-24.384 24.369-90.564 37.131-120.737 68.485 0 0-182.284 4.644-241.508 141.653C5.595 453.034 39.253 578.425 46.24 600.49c6.971 22.051-49.935 15.095-44.131 63.841 5.82 48.768 104.493 88.247 167.189 98.696 62.696 10.449 127.71 1.159 197.377 19.731 69.666 18.587 94.035 19.747 99.84 5.805 5.805-13.928-1.151-37.138-53.405-48.755-52.239-11.607-113.784-29.029-145.123-31.347-31.34-2.319-26.704-31.356-15.094-38.319 11.624-6.964 33.674-18.572 40.629-10.434 6.972 8.116 63.864 29.006 68.515 17.397 16.246 3.486 18.566 2.32 19.732-5.811 1.167-8.117 9.275 15.101 24.384 23.239 15.08 8.123 19.732 6.963 24.384 4.624 13.928 4.652 22.051-3.479 23.203-9.283 11.624-1.16 10.457-19.732-5.805-31.333-16.246-11.622-23.203-11.622-23.203-11.622l-8.138-15.08s8.138 5.797 20.899 8.123c12.775 2.319 34.826-2.318 20.898-19.731 5.805-1.166 8.138-8.138-4.652-13.943-12.761-9.275-20.884-4.644-24.369-3.485-3.486 1.166-9.291-23.21-13.943-46.442-4.624-23.218-2.319-76.623 1.166-91.711 3.486-15.095 44.116-68.507 83.595-109.153 39.478-40.622 30.189-81.252 27.87-88.224-2.32-6.963 25.535-29.029 31.339-37.159 19.747-4.639 29.036 2.333 52.254 6.955 23.218 4.654 26.703-10.434 33.675-13.928 6.955-3.477 26.687-8.115 29.021-23.216 2.319-15.095 1.152-20.898-19.732-39.471-4.652-19.732-4.652-54.55-18.594-67.34-13.928-12.768-23.217-15.088-24.369-23.218-1.166-8.13-2.334-26.71 6.957-37.159 9.289-10.442 23.232-26.695 13.942-30.174-9.304-3.493-35.225 10.072-42.964 18.565-23.217 25.544-12.76-1.151-12.76-1.151z" fill="currentColor"/></svg>
